name processed_emg_signals
nRows=98
nColumns=7
 
endheader
time	RGLTMED	RRF	RADDLONG	RST	RTA	RGM
0.627	0.0418343745217427	0.1918935851727275	0.0682647575041582	0.0262572126525211	0.4360664428568416	0.2340854346105724
0.628	0.0418604906396624	0.1903901501901928	0.0684018200254108	0.0267114185476486	0.4293505479607693	0.2368368798942894
0.629	0.0418955393268015	0.1888396842103555	0.0685331288521929	0.0271885031560545	0.4225622559735134	0.2396484442170034
0.63	0.0419392211891512	0.1872431811056829	0.0686585721794429	0.0276886059658466	0.4157121341994016	0.2425203192479047
0.631	0.0419912282228453	0.1856016811091941	0.0687780427481768	0.0282118463077041	0.4088108087839685	0.2454526196457404
0.632	0.0420512443647249	0.1839162695211124	0.0688914380515833	0.0287583227984677	0.4018689476805381	0.2484453806672147
0.633	0.0421189460474743	0.1821880753682738	0.0689986605372953	0.029328112795333	0.394897243730761	0.2514985558497841
0.634	0.0421940027580951	0.1804182700204405	0.069099617804753	0.0299212718617066	0.3879063978898736	0.2546120147777461
0.635	0.0422760775984583	0.1786080657673708	0.0691942227965984	0.0305378332458126	0.3809071026259375	0.2577855409402881
0.636	0.0423648278468135	0.1767587143602166	0.0692823939830657	0.0311778073731893	0.3739100255209153	0.2610188296900044
0.637	0.0424599055192075	0.1748715055208588	0.0693640555383146	0.0318411813543223	0.3669257930999958	0.2643114863103371
0.638	0.0425609579299076	0.1729477654225816	0.0694391375077063	0.032527918508689	0.3599649749143381	0.2676630242005392
0.639	0.0426676282498734	0.1709888551456027	0.0695075759650548	0.0332379579065269	0.353038067901032	0.2710728631867264
0.64	0.0427795560623621	0.1689961691106939	0.0695693131590592	0.0339712139296853	0.3461554810428777	0.2745403279673852
0.641	0.0428963779147758	0.1669711334940818	0.0696242976482411	0.0347275758529534	0.3393275203491433	0.2780646467012219
0.642	0.0430177278657684	0.1649152046264483	0.0696724844238325	0.0355069074473297	0.3325643741772845	0.2816449497446633
0.643	0.0431432380266413	0.1628298673786529	0.0697138350202782	0.0363090466066325	0.3258760989142492	0.2852802685456538
0.644	0.0432725390960449	0.1607166335364845	0.0697483176130416	0.0371338049988918	0.3192726050348914	0.2889695346996135
0.645	0.0434052608869552	0.1585770401664572	0.0697759071036567	0.0379809677438404	0.3127636435537155	0.2927115791725241
0.646	0.0435410328450209	0.1564126479743617	0.0697965851920286	0.0388502931178103	0.3063587928850663	0.2965051316952035
0.647	0.0436794845573362	0.1542250396578091	0.0698103404362102	0.0397415122872837	0.300067446125604	0.3003488203320879
0.648	0.0438202462508552	0.1520158182535374	0.0698171682999813	0.0406543290724209	0.2938987987718219	0.3042411712273
0.649	0.0439629492796651	0.1497866054797028	0.0698170711886036	0.0415884197418403	0.2878618368842122	0.3081806085305287
0.65	0.044107226600513	0.1475390400729719	0.0698100584731681	0.0425434328398993	0.2819653257087263	0.3121654545051329
0.651	0.04425271323609	0.1452747761198574	0.069796146503813	0.043518989047747	0.2762177987652364	0.3161939298210062
0.652	0.0443990467256655	0.142995481381447	0.0697753586120644	0.0445146810792726	0.2706275474118607	0.3202641540346291
0.653	0.0445458675627923	0.1407028356104535	0.0697477251024134	0.0455300736130935	0.2652026108932611	0.3243741462586196
0.654	0.0446928196199631	0.138398528859414	0.0697132832332653	0.0465647032616283	0.2599507668802544	0.3285218260227641
0.655	0.044839550560097	0.1360842597787669	0.0696720771873329	0.0476180785782869	0.2548795225074542	0.3327050143282912
0.656	0.0449857122348893	0.1337617339036304	0.0696241580315382	0.0486896801036934	0.2499961059149477	0.3369214348970313
0.657	0.0451309610699494	0.1314326619281891	0.0695695836663438	0.0497789604519215	0.2453074582994125	0.341168715617023
0.658	0.0452749584368078	0.129098757966913	0.0695084187644117	0.0508853444376937	0.2408202264792966	0.3454443901861382
0.659	0.0454173710118798	0.1267617378021464	0.0694407346983722	0.0520082292455167	0.2365407559779272	0.3497458999553322
0.66	0.0455578711225723	0.1244233171179179	0.0693666094575237	0.0531469846417062	0.232475084627594	0.3540705959731504
0.661	0.0456961370809084	0.1220852097203393	0.0692861275534564	0.0543009532302767	0.2286289366968257	0.3584157412332453
0.662	0.0458318535050217	0.1197491257456209	0.0691993799146846	0.0554694507536307	0.2250077175422292	0.3627785131266197
0.663	0.0459647116289585	0.1174167698575524	0.0691064637706571	0.056651766438881	0.2216165087855026	0.3671560061003607
0.664	0.0460944096012332	0.1150898394370051	0.069007482525708	0.0578471633905863	0.2184600640154207	0.371545234524273
0.665	0.0462206527725322	0.1127700227667034	0.0689025456236187	0.0590548790305602	0.2155428050138648	0.3759431357664535
0.666	0.0463431539729308	0.1104589972150524	0.0687917684036058	0.0602741255853608	0.2128688185042314	0.3803465734781568
0.667	0.0464616337789748	0.1081584274230605	0.068675271948486	0.0615040906221031	0.2104418534197339	0.3847523410875088
0.668	0.0465758207708836	0.1058699634984796	0.0685531829258833	0.0627439376331229	0.2082653186883768	0.3891571655008909
0.669	0.0466854517802161	0.103595239221238	0.0684256334233559	0.0639928066700096	0.2063422815305717	0.393557711009743
0.67	0.0467902721283166	0.1013358702640435	0.0682927607784362	0.0652498150274007	0.2046754662646774	0.3979505833995899
0.671	0.0468900358560061	0.0990934524322118	0.0681547074044952	0.0665140579768357	0.2032672536151058	0.4023323342568197
0.672	0.0469845059449473	0.0968695599265601	0.0680116206134981	0.0677846095507958	0.2021196805170703	0.4066994654675995
0.673	0.0470734545311237	0.0946657436333107	0.067863652436606	0.0690605233769808	0.2012344404115651	0.4110484339019872
0.674	0.0471566631108585	0.0924835294447361	0.0677109594437264	0.07034083356273	0.2006128840237494	0.4153756562750643
0.675	0.0472339227395743	0.0903244166142159	0.0675537025629764	0.0716245556293856	0.2002560206174073	0.4196775141757167
0.676	0.0473050342234741	0.0881898761491719	0.0673920469010537	0.072910687496319	0.2001645197176139	0.4239503592527503
0.677	0.0473698083041467	0.0860813492452646	0.0672261615653079	0.0741982105140967	0.2003387132931255	0.4281905185470368
0.678	0.0474280658361072	0.0840002457649928	0.0670562194881992	0.0754860905461768	0.2007785983893675	0.4323942999577858
0.679	0.0474796379572685	0.0819479427637486	0.0668823972546993	0.0767732790982244	0.2014838402022252	0.4365579978305294
0.68	0.0475243662524165	0.0799257830661011	0.0667048749330077	0.0780587144940039	0.2024537755822962	0.4406778986542427
0.681	0.0475621029098312	0.0779350738949211	0.0665238359088572	0.0793413230965535	0.2036874169587514	0.4447502868549801
0.682	0.047592710871157	0.0759770855556688	0.0663394667235759	0.0806200205730553	0.2051834566714265	0.4487714506735181
0.683	0.0476160639746537	0.0740530501779797	0.0661519569160411	0.0818937132016618	0.2069402716991634	0.4527376881146361
0.684	0.047632047091899	0.072164160516362	0.0659614988685757	0.0831612992182603	0.2089559287719605	0.4566453129558905
0.685	0.0476405562578764	0.0703115688117301	0.0657682876567734	0.0844216702009464	0.2112281898538338	0.4604906608035862
0.686	0.0476414987943835	0.0684963857152076	0.0655725209031731	0.0856737124898569	0.2137545179827949	0.4642700951830619
0.687	0.0476347934265462	0.0667196792755586	0.0653743986344936	0.0869163086397696	0.2165320834537615	0.4679800136495367
0.6880000000000001	0.0476203703921921	0.0649824739913556	0.0651741231420356	0.0881483389029033	0.2195577703296224	0.4716168539046099
0.6890000000000001	0.0475981715437215	0.0632857499288516	0.0649718988448045	0.0893686827390914	0.2228281832651404	0.4751770999025103
0.6900000000000001	0.0475681504421364	0.0616304419062941	0.0647679321547637	0.0905762203504546	0.22633965462772	0.4786572879291776
0.6910000000000001	0.047530272442701	0.0600174387452891	0.0645624313436495	0.0917698342374386	0.2300882518986925	0.4820540126366776
0.6920000000000001	0.0474845147717823	0.0584475825896062	0.064355606410635	0.0929484107728863	0.234069785338191	0.4853639330150087
0.6930000000000001	0.0474308665942222	0.0569216682916982	0.0641476689501553	0.0941108417905286	0.2382798158964552	0.4885837782836903
0.6940000000000001	0.0473693290705648	0.0554404428670396	0.0639388320193412	0.0952560261841649	0.2427136633538217	0.4917103536859725
0.6950000000000001	0.0472999154034238	0.0540046050162173	0.0637293100046073	0.096382871513587	0.2473664146713149	0.4947405461693405
0.6960000000000001	0.0472226508721957	0.0526148047146098	0.0635193184871673	0.0974902956132784	0.2522329325330509	0.4976713299366951
0.6970000000000001	0.0471375728554151	0.0512716428693577	0.0633090741073332	0.0985772281998073	0.2573078640611926	0.5004997718532698
0.6980000000000001	0.0470447308400967	0.0499756710431648	0.0630987944275733	0.0996426124738941	0.2625856496834782	0.503223036694856
0.6990000000000001	0.0469441864174505	0.0487273912443709	0.0628886977943733	0.1006854067131345	0.2680605321331096	0.5058383922229431
0.7000000000000001	0.0468360132644117	0.0475272557825267	0.0626790031989544	0.1017045858515437	0.2737265655606445	0.5083432140725183
0.7010000000000001	0.0467202971103522	0.0463756671886381	0.062469930136869	0.1026991430423349	0.27957762473801	0.510734990438672
0.7020000000000001	0.0465971356883696	0.0452729781990331	0.0622616984664391	0.103668091200544	0.2856074143353124	0.5130113265496414
0.7030000000000001	0.0464666386704583	0.0442194918018168	0.0620545282659025	0.1046104645224496	0.2918094782523602	0.5151699489161254
0.704	0.0463289275859295	0.0432154613447312	0.0618486396890133	0.1055253199788616	0.2981772089884326	0.5172087093491367
0.705	0.0461841357224296	0.0422610907031916	0.0616442528187892	0.1064117387794966	0.3047038570359303	0.5191255887406516
0.706	0.0460324080090726	0.0413565345072407	0.0614415875190249	0.1072688278055419	0.3113825402858246	0.5209187006023183
0.707	0.0458739008812053	0.0405018984259655	0.0612408632831477	0.1080957210073174	0.3182062534345438	0.5225862943575098
0.708	0.0457087821265307	0.0396972395079785	0.0610422990799195	0.1088915807637728	0.3251678773831087	0.5241267583815341
0.709	0.045537230712407	0.0389425665764271	0.0608461131954975	0.1096555992004113	0.3322601886197165	0.5255386227843386
0.71	0.0453594365943609	0.0382378406769667	0.0606525230712855	0.1103869994623133	0.3394758685772449	0.5268205619298905
0.711	0.0451756005059378	0.0375829755770761	0.0604617451369238	0.1110850369390054	0.3468075129575657	0.5279713966865246
0.712	0.0449859337302073	0.0369778383150058	0.0602739946377474	0.1117490004381842	0.3542476410150331	0.5289900964035816
0.713	0.0447906578532644	0.0364222497965466	0.0600894854559967	0.1123782133054744	0.3617887047919392	0.529875780611328
0.714	0.0445900045001361	0.0359159854377787	0.0599084299250588	0.1129720344874836	0.3694230982991074	0.5306277204434583
0.715	0.0443842150535304	0.0354587758518882	0.059731038636191	0.1135298595355837	0.3771431666352106	0.531245339783368
0.716	0.0441735403559352	0.0350503075781793	0.059557520237249	0.1140511215478829	0.3849412150390627	0.5317282161362813
0.717	0.0439582403955446	0.034690223851355	0.059388081223359	0.1145352920470321	0.3928095178698793	0.5320760812293549
0.718	0.0437385839765587	0.0343781254092	0.0592229257196795	0.1149818817918031	0.4007403275115691	0.5322888213410936
0.719	0.0435148483743234	0.034113571336702	0.0590622552568131	0.1153904415205641	0.4087258831982479	0.5323664773604926
0.72	0.0432873189758473	0.0338960799447403	0.058906268539613	0.1157605626253183	0.416758419759554	0.5323092445753357
0.721	0.0430562889062097	0.0337251296814363	0.0587551612102701	0.1160918777553598	0.4248301762857654	0.5321174721880747
0.722	0.0428220586414523	0.0336001600743815	0.0586091256066183	0.1163840613499928	0.4329334047138258	0.5317916625570172
0.723	0.0425849356085483	0.0335205727020564	0.0584683505165232	0.116636830100145	0.4410603783358138	0.5313324701599902
0.724	0.0423452337731011	0.0334857321928672	0.058333020929134	0.1168499433390935	0.4492034002311537	0.5307407002777641
